<svg version="1.1" id="Layer_1" class="svg-discount" xmlns="http://www.w3.org/2000/svg" x="0" y="0" viewBox="0 0 512 512" xml:space="preserve"><style>.st2{fill:none;stroke:#fff;stroke-width:8;stroke-miterlimit:10}</style><circle cx="256" cy="256" r="256" fill="#1d242b"/><path class="st2" d="M382.8 276.9l-10.3-26.8 10.3-26.8c1.1-3 .2-6.3-2.2-8.3l-22.3-18.1-4.5-28.4c-.5-3.1-3-5.6-6.1-6.1l-28.4-4.5-18.1-22.3c-2-2.5-5.4-3.4-8.3-2.2L266 143.6l-26.8-10.3c-3-1.1-6.3-.2-8.3 2.2l-18.1 22.3-28.4 4.5c-3.1.5-5.6 3-6.1 6.1l-4.5 28.4-22.3 18.1c-2.5 2-3.4 5.4-2.2 8.3l10.3 26.8-10.3 26.8c-1.1 3-.2 6.3 2.2 8.3l22.3 18.1 4.5 28.4c.5 3.1 3 5.6 6.1 6.1l28.4 4.5 18.1 22.3c2 2.5 5.4 3.4 8.3 2.2l26.8-10.3 26.8 10.3c.9.3 1.7.5 2.6.5 2.2 0 4.3-1 5.7-2.7l18.1-22.3 28.4-4.5c3.1-.5 5.6-3 6.1-6.1l4.5-28.4 22.3-18.1c2.6-1.9 3.4-5.2 2.3-8.2z"/><path class="st2" d="M244 191.4c-12.1 0-22 9.9-22 22s9.9 22 22 22 22-9.9 22-22-9.9-22-22-22zm44 73.3c-12.1 0-22 9.9-22 22s9.9 22 22 22 22-9.9 22-22-9.9-22-22-22z"/><path d="M229.3 299.7L302.6 197" fill="none" stroke="#fff" stroke-width="8" stroke-linecap="round" stroke-miterlimit="10"/></svg>