<svg id="Layer_1" class="svg-gear" xmlns="http://www.w3.org/2000/svg" viewBox="0 0 512 512"><style>.st0{fill:#1d242b}.st1{fill:#fff}.st2,.st3{fill:none;stroke:#fff;stroke-width:8;stroke-miterlimit:10}.st3{stroke-linecap:round}</style><circle class="st0" cx="256" cy="256" r="256"/><path class="st1" d="M256 192c-35.2 0-63.8 28.6-63.8 63.8s28.6 63.8 63.8 63.8 63.8-28.6 63.8-63.8S291.2 192 256 192zm0 118.6c-30.2 0-54.7-24.5-54.7-54.7s24.5-54.7 54.7-54.7 54.7 24.5 54.7 54.7-24.5 54.7-54.7 54.7z"/><path class="st1" d="M366.4 228.5h-9.2c-2.3-8.7-5.8-17.1-10.3-24.9l6.5-6.5c2.4-2.4 3.7-5.6 3.7-9 0-3.4-1.3-6.6-3.7-9l-20.8-20.8c-4.8-4.8-13.1-4.8-17.9 0l-6.5 6.5c-7.8-4.5-16.2-7.9-24.9-10.3v-9.2c0-7-5.7-12.7-12.7-12.7h-29.4c-7 0-12.7 5.7-12.7 12.7v9.2c-8.7 2.3-17 5.8-24.9 10.3l-6.5-6.5c-4.8-4.8-13.1-4.8-17.9 0l-20.8 20.8c-2.4 2.4-3.7 5.6-3.7 9 0 3.4 1.3 6.6 3.7 9l6.5 6.5c-4.5 7.8-8 16.2-10.3 24.9h-9.2c-7 0-12.7 5.7-12.7 12.7v29.4c0 7 5.7 12.7 12.7 12.7h9.2c2.3 8.7 5.8 17 10.3 24.9l-6.5 6.5c-2.4 2.4-3.7 5.6-3.7 9 0 3.4 1.3 6.6 3.7 9l20.8 20.8c4.8 4.8 13.1 4.8 17.9 0l6.5-6.5c7.8 4.5 16.2 8 24.9 10.3v9.2c0 7 5.7 12.7 12.7 12.7h29.4c7 0 12.7-5.7 12.7-12.7v-9.2c8.7-2.3 17-5.8 24.9-10.3l6.5 6.5c4.8 4.8 13.1 4.8 17.9 0l20.8-20.8c2.4-2.4 3.7-5.6 3.7-9 0-3.4-1.3-6.6-3.7-9l-6.5-6.5c4.5-7.8 8-16.2 10.3-24.9h9.2c7 0 12.7-5.7 12.7-12.7v-29.4c0-7-5.7-12.7-12.7-12.7zm3.6 42c0 2-1.6 3.6-3.6 3.6H350l-.8 3.5c-2.4 10.2-6.4 19.9-11.9 28.8l-1.9 3.1L347 321c1.4 1.4 1.4 3.6 0 5l-20.8 20.8c-1.4 1.4-3.6 1.4-5 0l-11.6-11.6-3.1 1.9c-8.9 5.5-18.6 9.5-28.8 11.9l-3.5.8v16.4c0 2-1.6 3.6-3.6 3.6h-29.4c-2 0-3.6-1.6-3.6-3.6v-16.4l-3.5-.8c-10.2-2.4-19.9-6.4-28.8-11.9l-3.1-1.9-11.6 11.6c-1.4 1.4-3.7 1.4-5 0L164.8 326c-1.4-1.4-1.4-3.6 0-5l11.6-11.6-1.9-3.1c-5.5-8.9-9.5-18.6-11.9-28.8l-.8-3.5h-16.4c-2 0-3.6-1.6-3.6-3.6V241c0-2 1.6-3.6 3.6-3.6H162l.8-3.5c2.4-10.2 6.4-19.9 11.9-28.8l1.9-3.1-11.6-11.6c-1.4-1.4-1.4-3.6 0-5l20.8-20.8c1.4-1.4 3.6-1.4 5 0l11.6 11.6 3.1-1.9c8.9-5.5 18.6-9.5 28.8-11.9l3.5-.8v-16.4c0-2 1.6-3.6 3.6-3.6h29.4c2 0 3.6 1.6 3.6 3.6v16.4l3.5.8c10.2 2.4 19.9 6.4 28.8 11.9l3.1 1.9 11.6-11.6c1.4-1.4 3.7-1.4 5 0l20.8 20.8c1.4 1.4 1.4 3.6 0 5L335.6 202l1.9 3.1c5.5 8.9 9.5 18.6 11.9 28.8l.8 3.5h16.4c2 0 3.6 1.6 3.6 3.6v29.5z"/><path class="st1" d="M256 210.3c-25.1 0-45.6 20.4-45.6 45.6 0 25.1 20.4 45.6 45.6 45.6s45.6-20.4 45.6-45.6c0-25.2-20.4-45.6-45.6-45.6zm0 82c-20.1 0-36.5-16.4-36.5-36.5s16.4-36.5 36.5-36.5 36.5 16.4 36.5 36.5-16.4 36.5-36.5 36.5z"/></svg>