<svg id="Layer_1" class="svg-github" xmlns="http://www.w3.org/2000/svg" viewBox="0 0 512 512"><style>.st0{fill:#1d242b}.st1{fill:#fff}.st2,.st3{fill:none;stroke:#fff;stroke-width:8;stroke-miterlimit:10}.st3{stroke-linecap:round}</style><path id="Github__x28_alt_x29__3_" class="st1" d="M367.7 129.4c5.1 11.6 8.4 31 3.5 45.1 20.1 17.3 27.3 59.3 17.4 93.7 28.9 2.3 63.2-1 85.4 7.8-20.8-2.7-49.2-7.9-75.8-6.1-5.1.4-12.7-.2-12.3 6.9 31.1 2.5 61.9 5 87.3 13-25.3-4.1-55.8-10.3-87.3-11.3-12.8 25.5-38.9 38.1-75 40.8 3.9 8.5 11.4 11.6 13.1 25.3 2.7 20.1-4 49.7 2.6 63.2 3.3 6.5 8.7 6.6 12.3 12-8.8 10.6-30.7-1.1-33.1-12-4.2-18.8 6.5-48-5.3-60.8.8 20.5-4.7 49.3.8 67.7 2.3 7.3 8.8 10 7.1 16.5-41.1 4.2-23.9-53.1-30.6-86.8-6.2.6-3.5 9.2-3.5 13-.2 33.1 6.7 78.2-28.7 73.8-1.1-6.9 4.8-9.2 7-15.7 6.5-18.5-1.2-46.2 1.7-68.5-13.5 10.3 1.5 45.9-6.9 64.3-4.8 10.4-20.4 15.1-32.3 10.4 1.5-7.8 9.6-6.6 13.1-13.9 4.8-10.3 0-24.9 1.7-40-25.1 5-44.5-.7-54.1-16.5-4.2-7-5.2-15.4-10.4-21.6-5-6.2-13.3-7-15.7-15.5 31.1-7.6 32.3 32 60.2 32.8 8.6.3 13-2.4 20.9-4.3 2.3-10 6.9-17.3 13.9-22.7-34.7-4.7-63.4-15.5-76.7-41.6-31.6 1.6-60.4 5.8-87.3 12.2 24.4-8.8 54.2-12 86.4-13-1.9-11.4-18.5-8.3-28.7-7.9-19.2.8-43.3 3.2-58.5 6.1 22.1-7.9 52.9-6.9 82.8-6.9-9.1-28.7-6-74.2 14-91.2-5.6-14.2-3.9-37.4 3.4-48.5 22.3 1 35.8 10.6 49.8 20 17.3-5 35.5-7.5 59.3-6.1 10 .6 20.4 5 27.8 4.4 7.3-.7 15.4-9 22.7-12.2 9.3-3.9 17.3-5.5 28-5.9z"/></svg>