<svg id="Layer_1" class="svg-google" xmlns="http://www.w3.org/2000/svg" viewBox="0 0 512 512"><style>.st0{fill:#1d242b}.st1{fill:#fff}.st2,.st3{fill:none;stroke:#fff;stroke-width:8;stroke-miterlimit:10}.st3{stroke-linecap:round}</style><path class="st0" d="M368.4 262.9H220.1v49.4h90.4c-13.5 43-53.6 74.1-101 74.1-58.5 0-105.9-47.4-105.9-105.9 0-58.5 47.4-105.9 105.9-105.9 29.4 0 56.1 12 75.3 31.4l35.9-39c-28.6-28.1-67.9-45.4-111.1-45.4-87.7 0-158.8 71.1-158.8 158.8s71.1 158.8 158.8 158.8c76.8 0 144.1-54.6 158.8-127.1v-49.2zm96.2-.1h-30.3v-30.3h-26v30.3H378v26h30.3v30.3h26v-30.3h30.3z"/></svg>