<svg version="1.1" id="Layer_1" class="svg-like" xmlns="http://www.w3.org/2000/svg" x="0" y="0" viewBox="0 0 512 512" xml:space="preserve"><style/><circle cx="256" cy="255.9" r="256" fill="#1d242b"/><path d="M356.5 279.2c4.5-5.8 6.7-11.9 6.4-18.3-.3-7-3.4-12.5-6-15.8 3-7.5 4.1-19.2-5.8-28.3-7.3-6.7-19.7-9.7-36.9-8.8-12.1.6-22.2 2.8-22.6 2.9-2.3.4-4.7.9-7.2 1.5-.2-2.9.3-10.3 5.8-26.7 6.4-19.6 6.1-34.6-1.2-44.6-7.6-10.5-19.8-11.4-23.4-11.4-3.5 0-6.6 1.4-8.9 4-5.1 5.9-4.5 16.9-3.9 21.9-6.1 16.3-23.1 56.2-37.5 67.3-.3.2-.5.4-.7.6-4.2 4.5-7.1 9.3-9 13.5-2.7-1.5-5.8-2.3-9.1-2.3h-28.1c-10.6 0-19.1 8.6-19.1 19.1v74.8c0 10.6 8.6 19.1 19.1 19.1h28.1c4.1 0 7.9-1.3 11-3.5l10.8 1.3c1.7.2 31.1 4 61.3 3.4 5.5.4 10.6.6 15.4.6 8.2 0 15.4-.6 21.4-1.9 14.1-3 23.7-9 28.6-17.8 3.7-6.7 3.7-13.4 3.1-17.6 9.2-8.3 10.8-17.4 10.4-23.9-.3-3.6-1.1-6.8-2-9.1zm-188.3 56.2c-3.7 0-6.7-3-6.7-6.7v-74.8c0-3.7 3-6.7 6.7-6.7h28.1c3.7 0 6.7 3 6.7 6.7v74.8c0 3.7-3 6.7-6.7 6.7h-28.1zm176.5-61.6c-1.9 2-2.3 5.1-.8 7.5 0 0 1.9 3.3 2.1 7.7.3 6-2.6 11.4-8.6 15.9-2.2 1.7-3 4.5-2.1 7.1 0 0 2 6.1-1.2 11.9-3.1 5.5-9.9 9.5-20.3 11.7-8.3 1.8-19.6 2.1-33.5 1h-.6c-29.6.6-59.5-3.2-59.8-3.3l-4.6-.6c.3-1.3.4-2.7.4-4v-74.8c0-2-.3-3.9-.9-5.7.8-3.1 3.1-9.9 8.6-15.8 20.7-16.4 40.8-71.6 41.7-74 .4-1 .5-2 .3-3.1-.8-5.2-.5-11.5.6-13.3 2.4 0 9 .7 13 6.2 4.7 6.5 4.5 18.1-.6 33.4-7.7 23.4-8.4 35.7-2.3 41.2 3 2.7 7.1 2.9 10 1.8 2.8-.6 5.5-1.2 8-1.6.2 0 .4-.1.6-.1 14.1-3.1 39.4-5 48.2 3 7.5 6.8 2.2 15.8 1.6 16.8-1.7 2.6-1.2 5.9 1.1 8 0 0 4.9 4.6 5.1 10.7-.1 4.1-2 8.2-6 12.4z" fill="#fff"/></svg>