<svg version="1.1" id="Layer_1" class="svg-slack" xmlns="http://www.w3.org/2000/svg" x="0" y="0" viewBox="0 0 512 512" xml:space="preserve"><style/><path d="M422.2 286.8c-6.7-13.4-24.1-19.4-39-13.4l-14.2 5.7-36.5-73.2 14.2-5.7c14.9-6 21.6-21.7 14.9-35-6.7-13.4-24.1-19.4-39-13.4l-14.2 5.7-6.4-12.8c-6.7-13.4-24.1-19.4-39-13.4-14.9 6-21.6 21.7-14.9 35l6.4 12.8-81.5 32.7-6.4-12.8c-6.7-13.4-24.1-19.4-39-13.4-14.9 6-21.6 21.7-14.9 35l6.4 12.8-14.2 5.7c-14.9 6-21.6 21.7-14.9 35 6.7 13.4 24.1 19.4 39 13.4l14.2-5.7 36.4 73.2-14.2 5.7c-14.9 6-21.6 21.7-14.9 35 6.7 13.4 24.1 19.4 39 13.4l14.2-5.7 6.4 12.8c6.7 13.4 24.1 19.4 39 13.4 14.9-6 21.6-21.7 14.9-35l-6.3-12.8 81.5-32.7 6.4 12.7c6.7 13.4 24.1 19.4 39 13.4 14.9-6 21.6-21.7 14.9-35l-6.4-12.8 14.2-5.7c14.9-5.9 21.5-21.6 14.9-34.9zm-188.7 46.7L197 260.3l81.5-32.7 36.4 73.2-81.4 32.7z" fill="#1d242b"/></svg>