<svg id="Layer_1" class="svg-upwork" xmlns="http://www.w3.org/2000/svg" viewBox="0 0 512 512"><style>.st0{fill:#1d242b}.st1{fill:#fff}.st2,.st3{fill:none;stroke:#fff;stroke-width:8;stroke-miterlimit:10}.st3{stroke-linecap:round}</style><path class="st0" d="M381.2 302.7c-21.1 0-40.8-8.9-58.7-23.4l4.4-20.5.2-.8c3.9-21.8 16.2-58.5 54.2-58.5 28.5 0 51.6 23.2 51.6 51.6-.1 28.4-23.3 51.6-51.7 51.6zm0-155.5c-48.5 0-86.1 31.5-101.4 83.3-23.3-35-41-77.1-51.3-112.5h-52.2v135.8c0 26.8-21.8 48.6-48.6 48.6s-48.6-21.8-48.6-48.6V118.1H26.9v135.8c-.2 55.6 45.1 101.3 100.7 101.3s100.9-45.7 100.9-101.3v-22.8c10.2 21.2 22.6 42.5 37.7 61.5l-32 150.3h53.4l23.2-109.1c20.3 13 43.7 21.2 70.4 21.2 57.2 0 103.8-46.9 103.8-104.1.1-57.1-46.5-103.7-103.8-103.7z"/></svg>