<svg version="1.1" id="Layer_1" class="svg-fb" xmlns="http://www.w3.org/2000/svg" x="0" y="0" viewBox="0 0 512 512" xml:space="preserve"><style/><path d="M330.5 131.6l-38.6-.1c-43.4 0-71.5 28.8-71.5 73.3v33.8h-38.9c-3.4 0-6.1 2.7-6.1 6.1v49c0 3.4 2.7 6.1 6.1 6.1h38.9v123.6c0 3.4 2.7 6.1 6.1 6.1h50.7c3.4 0 6.1-2.7 6.1-6.1V299.8h45.4c3.4 0 6.1-2.7 6.1-6.1v-49c0-1.6-.6-3.2-1.8-4.3-1.1-1.1-2.7-1.8-4.3-1.8h-45.5V210c0-13.8 3.3-20.8 21.2-20.8h26c3.4 0 6.1-2.7 6.1-6.1v-45.5c.1-3.3-2.7-6-6-6z" fill="#fff"/></svg>