<?xml version="1.0" encoding="utf-8"?>
<svg version="1.1" id="Layer_1" class="svg-slack" xmlns="http://www.w3.org/2000/svg" xmlns:xlink="http://www.w3.org/1999/xlink" x="0px" y="0px" viewBox="0 0 512 512" style="enable-background:new 0 0 512 512;" xml:space="preserve">
<style type="text/css">
	.st0{fill:#1D242B;}
	.st1{fill:#FFFFFF;}
	.st2{fill:none;stroke:#FFFFFF;stroke-width:8;stroke-miterlimit:10;}
	.st3{fill:none;stroke:#FFFFFF;stroke-width:8;stroke-linecap:round;stroke-miterlimit:10;}
</style>
<g>
	<path class="st0" d="M422.2,286.8c-6.7-13.4-24.1-19.4-39-13.4l-14.2,5.7l-36.5-73.2l14.2-5.7c14.9-6,21.6-21.7,14.9-35
		c-6.7-13.4-24.1-19.4-39-13.4l-14.2,5.7l-6.4-12.8c-6.7-13.4-24.1-19.4-39-13.4c-14.9,6-21.6,21.7-14.9,35l6.4,12.8l-81.5,32.7
		l-6.4-12.8c-6.7-13.4-24.1-19.4-39-13.4c-14.9,6-21.6,21.7-14.9,35l6.4,12.8l-14.2,5.7c-14.9,6-21.6,21.7-14.9,35
		c6.7,13.4,24.1,19.4,39,13.4l14.2-5.7l36.4,73.2l-14.2,5.7c-14.9,6-21.6,21.7-14.9,35c6.7,13.4,24.1,19.4,39,13.4l14.2-5.7
		l6.4,12.8c6.7,13.4,24.1,19.4,39,13.4c14.9-6,21.6-21.7,14.9-35l-6.3-12.8l81.5-32.7l6.4,12.7c6.7,13.4,24.1,19.4,39,13.4
		c14.9-6,21.6-21.7,14.9-35l-6.4-12.8l14.2-5.7C422.2,315.8,428.8,300.1,422.2,286.8z M233.5,333.5L197,260.3l81.5-32.7l36.4,73.2
		L233.5,333.5z"/>
</g>
</svg>
