<svg height="512" viewBox="0 0 64 64" width="512" xmlns="http://www.w3.org/2000/svg"><linearGradient id="linear-gradient" gradientUnits="userSpaceOnUse" x1="25.28" x2="25.28" y1="-10.405" y2="50.177"><stop offset="0" stop-color="#588081"/><stop offset="1" stop-color="#127681"/></linearGradient><linearGradient id="linear-gradient-2" gradientUnits="userSpaceOnUse" x1="38.72" x2="38.72" y1="-21.823" y2="69.196"><stop offset="0" stop-color="#e69650"/><stop offset="1" stop-color="#f3c623"/></linearGradient><g id="Crop"><path d="M44.8 18.56a.641.641 0 01.64.64v19.585a2.56 2.56 0 005.12 0V19.2a5.767 5.767 0 00-5.76-5.76H18.56V2.56a2.56 2.56 0 10-5.12 0v10.88H2.56a2.56 2.56 0 000 5.12z" fill="url(#linear-gradient)"/><path d="M61.44 45.44H19.2a.641.641 0 01-.64-.64V25.215a2.56 2.56 0 10-5.12 0V44.8a5.767 5.767 0 005.76 5.76h26.24v10.88a2.56 2.56 0 005.12 0V50.56h10.88a2.56 2.56 0 000-5.12z" fill="url(#linear-gradient-2)"/><path d="M11.644 16.925H10.9a1 1 0 010-2h.743a1 1 0 110 2zm-4.238 0h-3.8a1 1 0 010-2h3.8a1 1 0 110 2zM15.955 6.12a1 1 0 01-1-1V3.109a1 1 0 112 0V5.12a1 1 0 01-1 1zM32 48.848h-6.72a1 1 0 010-2H32a1 1 0 010 2z" fill="#fff"/></g></svg>