<svg xmlns="http://www.w3.org/2000/svg" viewBox="0 0 1600 900"><path fill="#10375c" d="M0 0h1600v900H0z"/><path fill="#08c5cc" d="M957 450L539 900h857z"/><path fill="#2d8baa" d="M957 450l-84.1 450H1396z"/><path fill="#20beb4" d="M-60 900l458-238 418 238z"/><path fill="#369292" d="M337 900l61-238 418 238z"/><path fill="#38b79c" d="M1203 546l349 354H876z"/><path fill="#3f997a" d="M1203 546l349 354h-390z"/><path fill="#4fb085" d="M641 695l245 205H367z"/><path fill="#48a162" d="M587 900l54-205 245 205z"/><path fill="#67a96d" d="M1710 900l-309-268-305 268z"/><path fill="#51a84a" d="M1710 900l-309-268-36 268z"/><path fill="#7fa255" d="M1210 900L971 687 725 900z"/><path fill="#5aaf32" d="M943 900h267L971 687z"/></svg>