<?xml version="1.0" encoding="utf-8"?><svg xmlns="http://www.w3.org/2000/svg" xmlns:xlink="http://www.w3.org/1999/xlink"><symbol viewBox="0 0 122.3 122.3" id="code" xmlns="http://www.w3.org/2000/svg"><path d="M116.3 15.15H6c-3.3 0-6 2.7-6 6v80c0 3.3 2.7 6 6 6h110.3c3.3 0 6-2.7 6-6v-80c0-3.3-2.7-6-6-6zm-73.7 42.6l-19.7 19.7c-1.7 1.7-4.2 2.3-6.3 1.4-4.3-1.8-5-7-2.1-9.9l11.2-11.2c2.3-2.3 2.3-6.1 0-8.5l-11.3-11.2c-2.9-2.9-2.2-8.1 2.1-9.9 2.2-.9 4.7-.3 6.3 1.4l19.7 19.7c1.2 1.2 1.8 2.7 1.8 4.2s-.5 3.1-1.7 4.3zm43.9 21.4h-36c-3.3 0-6-2.7-6-6s2.7-6 6-6h36c3.3 0 6 2.7 6 6s-2.7 6-6 6z"/></symbol><symbol id="fb" class="bsvg-fb" viewBox="0 0 512 512" xml:space="preserve" xmlns="http://www.w3.org/2000/svg"><style/><path d="M330.5 131.6l-38.6-.1c-43.4 0-71.5 28.8-71.5 73.3v33.8h-38.9c-3.4 0-6.1 2.7-6.1 6.1v49c0 3.4 2.7 6.1 6.1 6.1h38.9v123.6c0 3.4 2.7 6.1 6.1 6.1h50.7c3.4 0 6.1-2.7 6.1-6.1V299.8h45.4c3.4 0 6.1-2.7 6.1-6.1v-49c0-1.6-.6-3.2-1.8-4.3-1.1-1.1-2.7-1.8-4.3-1.8h-45.5V210c0-13.8 3.3-20.8 21.2-20.8h26c3.4 0 6.1-2.7 6.1-6.1v-45.5c.1-3.3-2.7-6-6-6z"/></symbol><symbol id="github" class="csvg-github" viewBox="0 0 512 512" xml:space="preserve" xmlns="http://www.w3.org/2000/svg"><style/><path id="cGithub__x28_alt_x29__3_" d="M367.7 129.4c5.1 11.6 8.4 31 3.5 45.1 20.1 17.3 27.3 59.3 17.4 93.7 28.9 2.3 63.2-1 85.4 7.8-20.8-2.7-49.2-7.9-75.8-6.1-5.1.4-12.7-.2-12.3 6.9 31.1 2.5 61.9 5 87.3 13-25.3-4.1-55.8-10.3-87.3-11.3-12.8 25.5-38.9 38.1-75 40.8 3.9 8.5 11.4 11.6 13.1 25.3 2.7 20.1-4 49.7 2.6 63.2 3.3 6.5 8.7 6.6 12.3 12-8.8 10.6-30.7-1.1-33.1-12-4.2-18.8 6.5-48-5.3-60.8.8 20.5-4.7 49.3.8 67.7 2.3 7.3 8.8 10 7.1 16.5-41.1 4.2-23.9-53.1-30.6-86.8-6.2.6-3.5 9.2-3.5 13-.2 33.1 6.7 78.2-28.7 73.8-1.1-6.9 4.8-9.2 7-15.7 6.5-18.5-1.2-46.2 1.7-68.5-13.5 10.3 1.5 45.9-6.9 64.3-4.8 10.4-20.4 15.1-32.3 10.4 1.5-7.8 9.6-6.6 13.1-13.9 4.8-10.3 0-24.9 1.7-40-25.1 5-44.5-.7-54.1-16.5-4.2-7-5.2-15.4-10.4-21.6-5-6.2-13.3-7-15.7-15.5 31.1-7.6 32.3 32 60.2 32.8 8.6.3 13-2.4 20.9-4.3 2.3-10 6.9-17.3 13.9-22.7-34.7-4.7-63.4-15.5-76.7-41.6-31.6 1.6-60.4 5.8-87.3 12.2 24.4-8.8 54.2-12 86.4-13-1.9-11.4-18.5-8.3-28.7-7.9-19.2.8-43.3 3.2-58.5 6.1 22.1-7.9 52.9-6.9 82.8-6.9-9.1-28.7-6-74.2 14-91.2-5.6-14.2-3.9-37.4 3.4-48.5 22.3 1 35.8 10.6 49.8 20 17.3-5 35.5-7.5 59.3-6.1 10 .6 20.4 5 27.8 4.4 7.3-.7 15.4-9 22.7-12.2 9.3-3.9 17.3-5.5 28-5.9z"/></symbol><symbol id="google" class="dsvg-google" viewBox="0 0 512 512" xml:space="preserve" xmlns="http://www.w3.org/2000/svg"><style>.dst0{fill:#1d242b}</style><path class="dst0" d="M368.4 262.9H220.1v49.4h90.4c-13.5 43-53.6 74.1-101 74.1-58.5 0-105.9-47.4-105.9-105.9 0-58.5 47.4-105.9 105.9-105.9 29.4 0 56.1 12 75.3 31.4l35.9-39c-28.6-28.1-67.9-45.4-111.1-45.4-87.7 0-158.8 71.1-158.8 158.8s71.1 158.8 158.8 158.8c76.8 0 144.1-54.6 158.8-127.1v-49.2zm96.2-.1h-30.3v-30.3h-26v30.3H378v26h30.3v30.3h26v-30.3h30.3z"/></symbol><symbol viewBox="0 0 512 512" id="programmer" xmlns="http://www.w3.org/2000/svg"><circle cx="136" cy="208" r="8"/><circle cx="216" cy="208" r="8"/><path d="M488 288H280a8 8 0 00-8 8v8h-38.369a112.769 112.769 0 0043.548-48H280a39.978 39.978 0 0025.294-70.955A101.972 101.972 0 00320 131.852c0-50.158-34.965-90.963-77.942-90.963a67.627 67.627 0 00-18.8 2.662A114.692 114.692 0 00148.8 16C84.4 16 32 69.832 32 136a122.865 122.865 0 0011.506 51.957A39.979 39.979 0 0072 256h2.821a112.769 112.769 0 0043.548 48H56a40.045 40.045 0 00-40 40v144a8 8 0 008 8h464a8 8 0 008-8V296a8 8 0 00-8-8zm-8 16v144H288V304zm-273.835 16c-4.4 9.311-16.26 16-30.165 16s-25.762-6.689-30.165-16zm77.243-80.246A111.652 111.652 0 00288 208v-14.624a24 24 0 01-4.592 46.378zM304 131.852a85.6 85.6 0 01-12.888 45.723 37.697 37.697 0 00-3.112-.771V153a8 8 0 00-8-8c-32.314 0-59.047-17.577-75.217-31.585 19.557-28.2 26.631-54.17 26.946-55.353L231.48 58a51.607 51.607 0 0110.578-1.106C276.213 56.889 304 90.517 304 131.852zM48 136C48 78.654 93.219 32 148.8 32a98.826 98.826 0 0166.3 25.7 189.54 189.54 0 01-28.787 53.87C157.416 149.014 118.955 168 72 168a8 8 0 00-8 8v.8a39.59 39.59 0 00-7.03 2.134A106.954 106.954 0 0148 136zm88 48a24 24 0 11-24 24 24.028 24.028 0 0124-24zm-39.195 16H80v-16.175a165.856 165.856 0 0027.07-3.4A39.933 39.933 0 0096.805 200zM48 216a24.039 24.039 0 0116-22.624V208a111.652 111.652 0 004.592 31.754A24.035 24.035 0 0148 216zm32.336 0h16.469a40 40 0 1045.246-47.542 160.392 160.392 0 0053.054-42.266c16.881 14.44 43.806 32 76.9 34.505V200H255.2a40 40 0 100 16h16.469a96 96 0 01-191.328 0zM240 208a24 24 0 11-24-24 24.028 24.028 0 0124 24zm-49.376 272H168v-16a24.039 24.039 0 0122.624 16zM152 480h-22.624A24.039 24.039 0 01152 464zm88-24v24h-32.8a40.069 40.069 0 00-39.2-32h-16a40.069 40.069 0 00-39.195 32H32V344a24.028 24.028 0 0124-24h72.966c4.46 18.235 23.853 32 47.034 32s42.574-13.765 47.034-32H272v128h-24a8 8 0 00-8 8zm240 24H256v-16h224z"/><path d="M312 336h16a8 8 0 000-16h-16a8 8 0 000 16zm0 32h16a8 8 0 000-16h-16a8 8 0 000 16zm80 16h-16a8 8 0 000 16h16a8 8 0 000-16z"/><circle cx="312" cy="392" r="8"/><path d="M392 368h16a8 8 0 000-16h-16a8 8 0 000 16zm-32-32h16a8 8 0 000-16h-16a8 8 0 000 16z"/><circle cx="408" cy="328" r="8"/><circle cx="360" cy="360" r="8"/><circle cx="312" cy="424" r="8"/><circle cx="344" cy="392" r="8"/><circle cx="392" cy="424" r="8"/><circle cx="424" cy="424" r="8"/><circle cx="424" cy="392" r="8"/><circle cx="440" cy="360" r="8"/><path d="M360 416h-16a8 8 0 000 16h16a8 8 0 000-16zM195.562 257.344c-13.345 8.9-25.779 8.9-39.124 0a8 8 0 10-8.876 13.312c9.3 6.2 18.871 9.3 28.438 9.3s19.136-3.1 28.438-9.3a8 8 0 00-8.876-13.312z"/></symbol><symbol id="slack" class="fsvg-slack" viewBox="0 0 512 512" xml:space="preserve" xmlns="http://www.w3.org/2000/svg"><style/><path d="M422.2 286.8c-6.7-13.4-24.1-19.4-39-13.4l-14.2 5.7-36.5-73.2 14.2-5.7c14.9-6 21.6-21.7 14.9-35-6.7-13.4-24.1-19.4-39-13.4l-14.2 5.7-6.4-12.8c-6.7-13.4-24.1-19.4-39-13.4-14.9 6-21.6 21.7-14.9 35l6.4 12.8-81.5 32.7-6.4-12.8c-6.7-13.4-24.1-19.4-39-13.4-14.9 6-21.6 21.7-14.9 35l6.4 12.8-14.2 5.7c-14.9 6-21.6 21.7-14.9 35 6.7 13.4 24.1 19.4 39 13.4l14.2-5.7 36.4 73.2-14.2 5.7c-14.9 6-21.6 21.7-14.9 35 6.7 13.4 24.1 19.4 39 13.4l14.2-5.7 6.4 12.8c6.7 13.4 24.1 19.4 39 13.4 14.9-6 21.6-21.7 14.9-35l-6.3-12.8 81.5-32.7 6.4 12.7c6.7 13.4 24.1 19.4 39 13.4 14.9-6 21.6-21.7 14.9-35l-6.4-12.8 14.2-5.7c14.9-5.9 21.5-21.6 14.9-34.9zm-188.7 46.7L197 260.3l81.5-32.7 36.4 73.2-81.4 32.7z"/></symbol><symbol id="upwork" class="gsvg-upwork" viewBox="0 0 512 512" xml:space="preserve" xmlns="http://www.w3.org/2000/svg"><style/><path d="M381.2 302.7c-21.1 0-40.8-8.9-58.7-23.4l4.4-20.5.2-.8c3.9-21.8 16.2-58.5 54.2-58.5 28.5 0 51.6 23.2 51.6 51.6-.1 28.4-23.3 51.6-51.7 51.6zm0-155.5c-48.5 0-86.1 31.5-101.4 83.3-23.3-35-41-77.1-51.3-112.5h-52.2v135.8c0 26.8-21.8 48.6-48.6 48.6s-48.6-21.8-48.6-48.6V118.1H26.9v135.8c-.2 55.6 45.1 101.3 100.7 101.3s100.9-45.7 100.9-101.3v-22.8c10.2 21.2 22.6 42.5 37.7 61.5l-32 150.3h53.4l23.2-109.1c20.3 13 43.7 21.2 70.4 21.2 57.2 0 103.8-46.9 103.8-104.1.1-57.1-46.5-103.7-103.8-103.7z"/></symbol><symbol class="hsvg-vk" viewBox="0 0 512 512" id="vk" xmlns="http://www.w3.org/2000/svg"><path class="hst0" d="M487.5 388.2c-.6-1.2-1.1-2.2-1.6-3-8.1-14.6-23.6-32.6-46.5-53.9l-.5-.5-.2-.2-.2-.2h-.2c-10.4-9.9-17-16.6-19.7-20-5-6.5-6.2-13.1-3.4-19.7 1.9-5 9.3-15.7 21.9-31.9 6.7-8.6 11.9-15.5 15.8-20.7 28.1-37.4 40.3-61.2 36.6-71.6l-1.5-2.4c-1-1.5-3.5-2.8-7.6-4-4.1-1.2-9.3-1.4-15.6-.6l-70.2.5c-1.1-.4-2.8-.4-4.9.1-2.1.5-3.2.7-3.2.7l-1.2.6-1 .7c-.8.5-1.7 1.3-2.7 2.6-1 1.2-1.8 2.6-2.4 4.3-7.6 19.7-16.3 37.9-26.1 54.8-6 10.1-11.5 18.8-16.6 26.2-5 7.4-9.3 12.8-12.7 16.3-3.4 3.5-6.5 6.3-9.3 8.4-2.8 2.1-4.9 3-6.3 2.7-1.5-.3-2.8-.7-4.1-1-2.3-1.5-4.1-3.5-5.5-6-1.4-2.5-2.3-5.7-2.8-9.5s-.8-7.1-.9-9.9c-.1-2.8 0-6.7.1-11.7.2-5 .2-8.4.2-10.2 0-6.2.1-12.9.4-20.1.2-7.2.4-13 .6-17.2.2-4.2.2-8.7.2-13.4s-.3-8.4-.9-11.1c-.6-2.7-1.4-5.3-2.6-7.8-1.1-2.5-2.8-4.5-5-5.8-2.2-1.4-4.9-2.5-8.2-3.3-8.6-1.9-19.6-3-32.9-3.2-30.2-.3-49.6 1.6-58.2 5.9-3.4 1.8-6.5 4.2-9.3 7.3-2.9 3.6-3.3 5.5-1.2 5.8 9.7 1.5 16.7 5 20.7 10.5l1.5 2.9c1.1 2.1 2.3 5.9 3.4 11.2 1.1 5.4 1.9 11.3 2.2 17.8.8 11.9.8 22 0 30.5s-1.6 15-2.3 19.7c-.7 4.7-1.8 8.5-3.3 11.5-1.5 2.9-2.4 4.7-2.9 5.4-.5.6-.9 1.1-1.2 1.2-2.1.8-4.3 1.2-6.6 1.2s-5-1.1-8.3-3.4c-3.2-2.3-6.6-5.4-10.1-9.4s-7.4-9.5-11.8-16.7c-4.4-7.1-8.9-15.6-13.6-25.3l-3.9-7.1c-2.4-4.5-5.8-11.2-10-19.9s-8-17.1-11.2-25.2c-1.3-3.4-3.2-6-5.8-7.8l-1.2-.7c-.8-.6-2.1-1.3-3.9-2.1-1.8-.7-3.7-1.3-5.6-1.6l-66.8.5c-6.8 0-11.5 1.5-13.9 4.6l-1 1.5c-.5.8-.7 2.1-.7 3.9 0 1.8.5 4 1.5 6.6 9.7 22.9 20.3 45 31.8 66.3s21.4 38.4 29.9 51.4c8.4 13 17.1 25.3 25.8 36.8 8.8 11.5 14.6 18.9 17.4 22.2 2.8 3.3 5.1 5.7 6.7 7.3l6.1 5.8c3.9 3.9 9.6 8.6 17.2 14s15.9 10.8 25.1 16.1c9.2 5.3 19.9 9.6 32 12.9 12.2 3.3 24 4.7 35.6 4h28c5.7-.5 10-2.3 12.9-5.4l1-1.2c.7-1 1.3-2.5 1.8-4.5.6-2 .9-4.3.9-6.7-.2-7 .4-13.3 1.6-18.9 1.2-5.6 2.6-9.8 4.1-12.7 1.5-2.8 3.3-5.2 5.2-7.2 1.9-1.9 3.3-3.1 4.1-3.5.8-.4 1.5-.7 1.9-.9 3.9-1.3 8.5 0 13.8 3.8 5.3 3.8 10.2 8.5 14.9 14.1 4.6 5.6 10.2 11.9 16.7 18.9 6.5 7 12.2 12.2 17.1 15.6l4.9 2.9c3.3 2 7.5 3.7 12.7 5.4 5.2 1.6 9.7 2 13.6 1.2l62.4-1c6.2 0 11-1 14.4-3 3.4-2 5.4-4.3 6.1-6.7.7-2.4.7-5.2.1-8.3-.4-3.2-1-5.3-1.6-6.5z"/></symbol></svg>