<?xml version="1.0" encoding="utf-8"?><svg xmlns="http://www.w3.org/2000/svg" xmlns:xlink="http://www.w3.org/1999/xlink"><symbol viewBox="0 0 122.3 122.3" id="code" xmlns="http://www.w3.org/2000/svg"><path d="M116.3 15.15H6c-3.3 0-6 2.7-6 6v80c0 3.3 2.7 6 6 6h110.3c3.3 0 6-2.7 6-6v-80c0-3.3-2.7-6-6-6zm-73.7 42.6l-19.7 19.7c-1.7 1.7-4.2 2.3-6.3 1.4-4.3-1.8-5-7-2.1-9.9l11.2-11.2c2.3-2.3 2.3-6.1 0-8.5l-11.3-11.2c-2.9-2.9-2.2-8.1 2.1-9.9 2.2-.9 4.7-.3 6.3 1.4l19.7 19.7c1.2 1.2 1.8 2.7 1.8 4.2s-.5 3.1-1.7 4.3zm43.9 21.4h-36c-3.3 0-6-2.7-6-6s2.7-6 6-6h36c3.3 0 6 2.7 6 6s-2.7 6-6 6z"/></symbol><symbol viewBox="0 0 512 512" id="programmer" xmlns="http://www.w3.org/2000/svg"><circle cx="136" cy="208" r="8"/><circle cx="216" cy="208" r="8"/><path d="M488 288H280a8 8 0 00-8 8v8h-38.369a112.769 112.769 0 0043.548-48H280a39.978 39.978 0 0025.294-70.955A101.972 101.972 0 00320 131.852c0-50.158-34.965-90.963-77.942-90.963a67.627 67.627 0 00-18.8 2.662A114.692 114.692 0 00148.8 16C84.4 16 32 69.832 32 136a122.865 122.865 0 0011.506 51.957A39.979 39.979 0 0072 256h2.821a112.769 112.769 0 0043.548 48H56a40.045 40.045 0 00-40 40v144a8 8 0 008 8h464a8 8 0 008-8V296a8 8 0 00-8-8zm-8 16v144H288V304zm-273.835 16c-4.4 9.311-16.26 16-30.165 16s-25.762-6.689-30.165-16zm77.243-80.246A111.652 111.652 0 00288 208v-14.624a24 24 0 01-4.592 46.378zM304 131.852a85.6 85.6 0 01-12.888 45.723 37.697 37.697 0 00-3.112-.771V153a8 8 0 00-8-8c-32.314 0-59.047-17.577-75.217-31.585 19.557-28.2 26.631-54.17 26.946-55.353L231.48 58a51.607 51.607 0 0110.578-1.106C276.213 56.889 304 90.517 304 131.852zM48 136C48 78.654 93.219 32 148.8 32a98.826 98.826 0 0166.3 25.7 189.54 189.54 0 01-28.787 53.87C157.416 149.014 118.955 168 72 168a8 8 0 00-8 8v.8a39.59 39.59 0 00-7.03 2.134A106.954 106.954 0 0148 136zm88 48a24 24 0 11-24 24 24.028 24.028 0 0124-24zm-39.195 16H80v-16.175a165.856 165.856 0 0027.07-3.4A39.933 39.933 0 0096.805 200zM48 216a24.039 24.039 0 0116-22.624V208a111.652 111.652 0 004.592 31.754A24.035 24.035 0 0148 216zm32.336 0h16.469a40 40 0 1045.246-47.542 160.392 160.392 0 0053.054-42.266c16.881 14.44 43.806 32 76.9 34.505V200H255.2a40 40 0 100 16h16.469a96 96 0 01-191.328 0zM240 208a24 24 0 11-24-24 24.028 24.028 0 0124 24zm-49.376 272H168v-16a24.039 24.039 0 0122.624 16zM152 480h-22.624A24.039 24.039 0 01152 464zm88-24v24h-32.8a40.069 40.069 0 00-39.2-32h-16a40.069 40.069 0 00-39.195 32H32V344a24.028 24.028 0 0124-24h72.966c4.46 18.235 23.853 32 47.034 32s42.574-13.765 47.034-32H272v128h-24a8 8 0 00-8 8zm240 24H256v-16h224z"/><path d="M312 336h16a8 8 0 000-16h-16a8 8 0 000 16zm0 32h16a8 8 0 000-16h-16a8 8 0 000 16zm80 16h-16a8 8 0 000 16h16a8 8 0 000-16z"/><circle cx="312" cy="392" r="8"/><path d="M392 368h16a8 8 0 000-16h-16a8 8 0 000 16zm-32-32h16a8 8 0 000-16h-16a8 8 0 000 16z"/><circle cx="408" cy="328" r="8"/><circle cx="360" cy="360" r="8"/><circle cx="312" cy="424" r="8"/><circle cx="344" cy="392" r="8"/><circle cx="392" cy="424" r="8"/><circle cx="424" cy="424" r="8"/><circle cx="424" cy="392" r="8"/><circle cx="440" cy="360" r="8"/><path d="M360 416h-16a8 8 0 000 16h16a8 8 0 000-16zM195.562 257.344c-13.345 8.9-25.779 8.9-39.124 0a8 8 0 10-8.876 13.312c9.3 6.2 18.871 9.3 28.438 9.3s19.136-3.1 28.438-9.3a8 8 0 00-8.876-13.312z"/></symbol></svg>