<svg height="512" viewBox="0 0 64 64" width="512" xmlns="http://www.w3.org/2000/svg" xmlns:xlink="http://www.w3.org/1999/xlink"><linearGradient id="linear-gradient" gradientUnits="userSpaceOnUse" x1="25.28" x2="25.28" y1="-10.405" y2="50.177"><stop offset="0" stop-color="#588081"/><stop offset="1" stop-color="#127681"/></linearGradient><linearGradient id="linear-gradient-2" gradientUnits="userSpaceOnUse" x1="38.72" x2="38.72" y1="-21.823" y2="69.196"><stop offset="0" stop-color="#e69650"/><stop offset="1" stop-color="#f3c623"/></linearGradient><g id="Crop"><path d="m44.8 18.56a.641.641 0 0 1 .64.64v19.585a2.56 2.56 0 0 0 5.12 0v-19.585a5.767 5.767 0 0 0 -5.76-5.76h-26.24v-10.88a2.56 2.56 0 1 0 -5.12 0v10.88h-10.88a2.56 2.56 0 0 0 0 5.12z" fill="url(#linear-gradient)"/><path d="m61.44 45.44h-42.24a.641.641 0 0 1 -.64-.64v-19.585a2.56 2.56 0 1 0 -5.12 0v19.585a5.767 5.767 0 0 0 5.76 5.76h26.24v10.88a2.56 2.56 0 0 0 5.12 0v-10.88h10.88a2.56 2.56 0 0 0 0-5.12z" fill="url(#linear-gradient-2)"/><g fill="#fff"><path d="m11.644 16.925h-.744a1 1 0 0 1 0-2h.743a1 1 0 1 1 0 2z"/><path d="m7.406 16.925h-3.8a1 1 0 0 1 0-2h3.8a1 1 0 1 1 0 2z"/><path d="m15.955 6.12a1 1 0 0 1 -1-1v-2.011a1 1 0 1 1 2 0v2.011a1 1 0 0 1 -1 1z"/><path d="m32 48.848h-6.72a1 1 0 0 1 0-2h6.72a1 1 0 0 1 0 2z"/></g></g></svg>
