<?xml version="1.0" encoding="utf-8"?>
<svg version="1.1" id="Layer_1" class="svg-discount" xmlns="http://www.w3.org/2000/svg" xmlns:xlink="http://www.w3.org/1999/xlink" x="0px" y="0px" viewBox="0 0 512 512" style="enable-background:new 0 0 512 512;" xml:space="preserve">
<style type="text/css">
	.st0{fill:#1D242B;}
	.st1{fill:#FFFFFF;}
	.st2{fill:none;stroke:#FFFFFF;stroke-width:8;stroke-miterlimit:10;}
	.st3{fill:none;stroke:#FFFFFF;stroke-width:8;stroke-linecap:round;stroke-miterlimit:10;}
</style>
<circle class="st0" cx="256" cy="256" r="256"/>
<g>
	<g>
		<g>
			<path class="st2" d="M382.8,276.9l-10.3-26.8l10.3-26.8c1.1-3,0.2-6.3-2.2-8.3l-22.3-18.1l-4.5-28.4c-0.5-3.1-3-5.6-6.1-6.1
				l-28.4-4.5l-18.1-22.3c-2-2.5-5.4-3.4-8.3-2.2L266,143.6l-26.8-10.3c-3-1.1-6.3-0.2-8.3,2.2l-18.1,22.3l-28.4,4.5
				c-3.1,0.5-5.6,3-6.1,6.1l-4.5,28.4l-22.3,18.1c-2.5,2-3.4,5.4-2.2,8.3l10.3,26.8l-10.3,26.8c-1.1,3-0.2,6.3,2.2,8.3l22.3,18.1
				l4.5,28.4c0.5,3.1,3,5.6,6.1,6.1l28.4,4.5l18.1,22.3c2,2.5,5.4,3.4,8.3,2.2l26.8-10.3l26.8,10.3c0.9,0.3,1.7,0.5,2.6,0.5
				c2.2,0,4.3-1,5.7-2.7l18.1-22.3l28.4-4.5c3.1-0.5,5.6-3,6.1-6.1l4.5-28.4l22.3-18.1C383.1,283.2,383.9,279.9,382.8,276.9z"/>
		</g>
	</g>
	<g>
		<g>
			<path class="st2" d="M244,191.4c-12.1,0-22,9.9-22,22s9.9,22,22,22s22-9.9,22-22S256.1,191.4,244,191.4z"/>
		</g>
	</g>
	<g>
		<g>
			<path class="st2" d="M288,264.7c-12.1,0-22,9.9-22,22c0,12.1,9.9,22,22,22c12.1,0,22-9.9,22-22C310,274.6,300.1,264.7,288,264.7z
				"/>
		</g>
	</g>
	<g>
		<g>
			<path class="st3" d="M229.3,299.7L302.6,197"/>
		</g>
	</g>
</g>
</svg>
