<?xml version="1.0" encoding="utf-8"?>
<svg version="1.1" id="Layer_1" class="svg-gear" xmlns="http://www.w3.org/2000/svg" xmlns:xlink="http://www.w3.org/1999/xlink" x="0px" y="0px" viewBox="0 0 512 512" style="enable-background:new 0 0 512 512;" xml:space="preserve">
<style type="text/css">
	.st0{fill:#1D242B;}
	.st1{fill:#FFFFFF;}
	.st2{fill:none;stroke:#FFFFFF;stroke-width:8;stroke-miterlimit:10;}
	.st3{fill:none;stroke:#FFFFFF;stroke-width:8;stroke-linecap:round;stroke-miterlimit:10;}
</style>
<circle class="st0" cx="256" cy="256" r="256"/>
<g>
	<path class="st1" d="M256,192c-35.2,0-63.8,28.6-63.8,63.8s28.6,63.8,63.8,63.8s63.8-28.6,63.8-63.8S291.2,192,256,192z M256,310.6
		c-30.2,0-54.7-24.5-54.7-54.7s24.5-54.7,54.7-54.7s54.7,24.5,54.7,54.7S286.2,310.6,256,310.6z"/>
	<path class="st1" d="M366.4,228.5h-9.2c-2.3-8.7-5.8-17.1-10.3-24.9l6.5-6.5c2.4-2.4,3.7-5.6,3.7-9c0-3.4-1.3-6.6-3.7-9l-20.8-20.8
		c-4.8-4.8-13.1-4.8-17.9,0l-6.5,6.5c-7.8-4.5-16.2-7.9-24.9-10.3v-9.2c0-7-5.7-12.7-12.7-12.7h-29.4c-7,0-12.7,5.7-12.7,12.7v9.2
		c-8.7,2.3-17,5.8-24.9,10.3l-6.5-6.5c-4.8-4.8-13.1-4.8-17.9,0l-20.8,20.8c-2.4,2.4-3.7,5.6-3.7,9c0,3.4,1.3,6.6,3.7,9l6.5,6.5
		c-4.5,7.8-8,16.2-10.3,24.9h-9.2c-7,0-12.7,5.7-12.7,12.7v29.4c0,7,5.7,12.7,12.7,12.7h9.2c2.3,8.7,5.8,17,10.3,24.9l-6.5,6.5
		c-2.4,2.4-3.7,5.6-3.7,9c0,3.4,1.3,6.6,3.7,9l20.8,20.8c4.8,4.8,13.1,4.8,17.9,0l6.5-6.5c7.8,4.5,16.2,8,24.9,10.3v9.2
		c0,7,5.7,12.7,12.7,12.7h29.4c7,0,12.7-5.7,12.7-12.7v-9.2c8.7-2.3,17-5.8,24.9-10.3l6.5,6.5c4.8,4.8,13.1,4.8,17.9,0l20.8-20.8
		c2.4-2.4,3.7-5.6,3.7-9c0-3.4-1.3-6.6-3.7-9l-6.5-6.5c4.5-7.8,8-16.2,10.3-24.9h9.2c7,0,12.7-5.7,12.7-12.7v-29.4
		C379.1,234.2,373.4,228.5,366.4,228.5z M370,270.5c0,2-1.6,3.6-3.6,3.6h-16.4l-0.8,3.5c-2.4,10.2-6.4,19.9-11.9,28.8l-1.9,3.1
		L347,321c1.4,1.4,1.4,3.6,0,5l-20.8,20.8c-1.4,1.4-3.6,1.4-5,0l-11.6-11.6l-3.1,1.9c-8.9,5.5-18.6,9.5-28.8,11.9l-3.5,0.8v16.4
		c0,2-1.6,3.6-3.6,3.6h-29.4c-2,0-3.6-1.6-3.6-3.6v-16.4l-3.5-0.8c-10.2-2.4-19.9-6.4-28.8-11.9l-3.1-1.9l-11.6,11.6
		c-1.4,1.4-3.7,1.4-5,0l-20.8-20.8c-1.4-1.4-1.4-3.6,0-5l11.6-11.6l-1.9-3.1c-5.5-8.9-9.5-18.6-11.9-28.8l-0.8-3.5h-16.4
		c-2,0-3.6-1.6-3.6-3.6v-29.4c0-2,1.6-3.6,3.6-3.6H162l0.8-3.5c2.4-10.2,6.4-19.9,11.9-28.8l1.9-3.1l-11.6-11.6
		c-1.4-1.4-1.4-3.6,0-5l20.8-20.8c1.4-1.4,3.6-1.4,5,0l11.6,11.6l3.1-1.9c8.9-5.5,18.6-9.5,28.8-11.9l3.5-0.8v-16.4
		c0-2,1.6-3.6,3.6-3.6h29.4c2,0,3.6,1.6,3.6,3.6v16.4l3.5,0.8c10.2,2.4,19.9,6.4,28.8,11.9l3.1,1.9l11.6-11.6c1.4-1.4,3.7-1.4,5,0
		l20.8,20.8c1.4,1.4,1.4,3.6,0,5l-11.6,11.6l1.9,3.1c5.5,8.9,9.5,18.6,11.9,28.8l0.8,3.5h16.4c2,0,3.6,1.6,3.6,3.6V270.5z"/>
	<path class="st1" d="M256,210.3c-25.1,0-45.6,20.4-45.6,45.6c0,25.1,20.4,45.6,45.6,45.6s45.6-20.4,45.6-45.6
		C301.6,230.7,281.2,210.3,256,210.3z M256,292.3c-20.1,0-36.5-16.4-36.5-36.5s16.4-36.5,36.5-36.5s36.5,16.4,36.5,36.5
		S276.1,292.3,256,292.3z"/>
</g>
</svg>
