<?xml version="1.0" encoding="utf-8"?>
<svg version="1.1" id="Layer_1" class="svg-github" xmlns="http://www.w3.org/2000/svg" xmlns:xlink="http://www.w3.org/1999/xlink" x="0px" y="0px" viewBox="0 0 512 512" style="enable-background:new 0 0 512 512;" xml:space="preserve">
<style type="text/css">
	.st0{fill:#1D242B;}
	.st1{fill:#FFFFFF;}
	.st2{fill:none;stroke:#FFFFFF;stroke-width:8;stroke-miterlimit:10;}
	.st3{fill:none;stroke:#FFFFFF;stroke-width:8;stroke-linecap:round;stroke-miterlimit:10;}
</style>
<g>
	<path id="Github__x28_alt_x29__3_" class="st1" d="M367.7,129.4c5.1,11.6,8.4,31,3.5,45.1c20.1,17.3,27.3,59.3,17.4,93.7
		c28.9,2.3,63.2-1,85.4,7.8c-20.8-2.7-49.2-7.9-75.8-6.1c-5.1,0.4-12.7-0.2-12.3,6.9c31.1,2.5,61.9,5,87.3,13
		c-25.3-4.1-55.8-10.3-87.3-11.3c-12.8,25.5-38.9,38.1-75,40.8c3.9,8.5,11.4,11.6,13.1,25.3c2.7,20.1-4,49.7,2.6,63.2
		c3.3,6.5,8.7,6.6,12.3,12c-8.8,10.6-30.7-1.1-33.1-12c-4.2-18.8,6.5-48-5.3-60.8c0.8,20.5-4.7,49.3,0.8,67.7
		c2.3,7.3,8.8,10,7.1,16.5c-41.1,4.2-23.9-53.1-30.6-86.8c-6.2,0.6-3.5,9.2-3.5,13c-0.2,33.1,6.7,78.2-28.7,73.8
		c-1.1-6.9,4.8-9.2,7-15.7c6.5-18.5-1.2-46.2,1.7-68.5c-13.5,10.3,1.5,45.9-6.9,64.3c-4.8,10.4-20.4,15.1-32.3,10.4
		c1.5-7.8,9.6-6.6,13.1-13.9c4.8-10.3,0-24.9,1.7-40c-25.1,5-44.5-0.7-54.1-16.5c-4.2-7-5.2-15.4-10.4-21.6c-5-6.2-13.3-7-15.7-15.5
		c31.1-7.6,32.3,32,60.2,32.8c8.6,0.3,13-2.4,20.9-4.3c2.3-10,6.9-17.3,13.9-22.7c-34.7-4.7-63.4-15.5-76.7-41.6
		c-31.6,1.6-60.4,5.8-87.3,12.2c24.4-8.8,54.2-12,86.4-13c-1.9-11.4-18.5-8.3-28.7-7.9c-19.2,0.8-43.3,3.2-58.5,6.1
		c22.1-7.9,52.9-6.9,82.8-6.9c-9.1-28.7-6-74.2,14-91.2c-5.6-14.2-3.9-37.4,3.4-48.5c22.3,1,35.8,10.6,49.8,20
		c17.3-5,35.5-7.5,59.3-6.1c10,0.6,20.4,5,27.8,4.4c7.3-0.7,15.4-9,22.7-12.2C349,131.4,357,129.8,367.7,129.4z"/>
</g>
</svg>
