<?xml version="1.0" encoding="utf-8"?>
<svg version="1.1" id="Layer_1" class="svg-like" xmlns="http://www.w3.org/2000/svg" xmlns:xlink="http://www.w3.org/1999/xlink" x="0px" y="0px" viewBox="0 0 512 512" style="enable-background:new 0 0 512 512;" xml:space="preserve">
<style type="text/css">
	.st0{fill:#1D242B;}
	.st1{fill:#FFFFFF;}
	.st2{fill:none;stroke:#FFFFFF;stroke-width:8;stroke-miterlimit:10;}
	.st3{fill:none;stroke:#FFFFFF;stroke-width:8;stroke-linecap:round;stroke-miterlimit:10;}
</style>
<circle class="st0" cx="256" cy="255.9" r="256"/>
<g>
	<path class="st1" d="M356.5,279.2c4.5-5.8,6.7-11.9,6.4-18.3c-0.3-7-3.4-12.5-6-15.8c3-7.5,4.1-19.2-5.8-28.3
		c-7.3-6.7-19.7-9.7-36.9-8.8c-12.1,0.6-22.2,2.8-22.6,2.9h0c-2.3,0.4-4.7,0.9-7.2,1.5c-0.2-2.9,0.3-10.3,5.8-26.7
		c6.4-19.6,6.1-34.6-1.2-44.6c-7.6-10.5-19.8-11.4-23.4-11.4c-3.5,0-6.6,1.4-8.9,4c-5.1,5.9-4.5,16.9-3.9,21.9
		c-6.1,16.3-23.1,56.2-37.5,67.3c-0.3,0.2-0.5,0.4-0.7,0.6c-4.2,4.5-7.1,9.3-9,13.5c-2.7-1.5-5.8-2.3-9.1-2.3h-28.1
		c-10.6,0-19.1,8.6-19.1,19.1v74.8c0,10.6,8.6,19.1,19.1,19.1h28.1c4.1,0,7.9-1.3,11-3.5l10.8,1.3c1.7,0.2,31.1,4,61.3,3.4
		c5.5,0.4,10.6,0.6,15.4,0.6c8.2,0,15.4-0.6,21.4-1.9c14.1-3,23.7-9,28.6-17.8c3.7-6.7,3.7-13.4,3.1-17.6
		c9.2-8.3,10.8-17.4,10.4-23.9C358.2,284.7,357.4,281.5,356.5,279.2z M168.2,335.4c-3.7,0-6.7-3-6.7-6.7v-74.8c0-3.7,3-6.7,6.7-6.7
		h28.1c3.7,0,6.7,3,6.7,6.7v74.8c0,3.7-3,6.7-6.7,6.7L168.2,335.4L168.2,335.4z M344.7,273.8c-1.9,2-2.3,5.1-0.8,7.5
		c0,0,1.9,3.3,2.1,7.7c0.3,6-2.6,11.4-8.6,15.9c-2.2,1.7-3,4.5-2.1,7.1c0,0,2,6.1-1.2,11.9c-3.1,5.5-9.9,9.5-20.3,11.7
		c-8.3,1.8-19.6,2.1-33.5,1c-0.2,0-0.4,0-0.6,0c-29.6,0.6-59.5-3.2-59.8-3.3h0l-4.6-0.6c0.3-1.3,0.4-2.7,0.4-4v-74.8
		c0-2-0.3-3.9-0.9-5.7c0.8-3.1,3.1-9.9,8.6-15.8c20.7-16.4,40.8-71.6,41.7-74c0.4-1,0.5-2,0.3-3.1c-0.8-5.2-0.5-11.5,0.6-13.3
		c2.4,0,9,0.7,13,6.2c4.7,6.5,4.5,18.1-0.6,33.4c-7.7,23.4-8.4,35.7-2.3,41.2c3,2.7,7.1,2.9,10,1.8c2.8-0.6,5.5-1.2,8-1.6
		c0.2,0,0.4-0.1,0.6-0.1c14.1-3.1,39.4-5,48.2,3c7.5,6.8,2.2,15.8,1.6,16.8c-1.7,2.6-1.2,5.9,1.1,8c0,0,4.9,4.6,5.1,10.7
		C350.6,265.5,348.7,269.6,344.7,273.8z"/>
</g>
</svg>
