<?xml version="1.0" encoding="utf-8"?>
<svg version="1.1" id="Layer_1" class="svg-upwork" xmlns="http://www.w3.org/2000/svg" xmlns:xlink="http://www.w3.org/1999/xlink" x="0px" y="0px" viewBox="0 0 512 512" style="enable-background:new 0 0 512 512;" xml:space="preserve">
<style type="text/css">
	.st0{fill:#1D242B;}
	.st1{fill:#FFFFFF;}
	.st2{fill:none;stroke:#FFFFFF;stroke-width:8;stroke-miterlimit:10;}
	.st3{fill:none;stroke:#FFFFFF;stroke-width:8;stroke-linecap:round;stroke-miterlimit:10;}
</style>
<path class="st0" d="M381.2,302.7c-21.1,0-40.8-8.9-58.7-23.4l4.4-20.5l0.2-0.8c3.9-21.8,16.2-58.5,54.2-58.5
	c28.5,0,51.6,23.2,51.6,51.6C432.8,279.5,409.6,302.7,381.2,302.7L381.2,302.7z M381.2,147.2c-48.5,0-86.1,31.5-101.4,83.3
	c-23.3-35-41-77.1-51.3-112.5h-52.2v135.8c0,26.8-21.8,48.6-48.6,48.6s-48.6-21.8-48.6-48.6V118.1H26.9v135.8
	C26.7,309.5,72,355.2,127.6,355.2s100.9-45.7,100.9-101.3v-22.8c10.2,21.2,22.6,42.5,37.7,61.5l-32,150.3h53.4l23.2-109.1
	c20.3,13,43.7,21.2,70.4,21.2c57.2,0,103.8-46.9,103.8-104.1C485.1,193.8,438.5,147.2,381.2,147.2L381.2,147.2z"/>
</svg>
