<?xml version="1.0" encoding="utf-8"?>
<svg version="1.1" id="Layer_1" class="svg-vk" xmlns="http://www.w3.org/2000/svg" xmlns:xlink="http://www.w3.org/1999/xlink" x="0px" y="0px" viewBox="0 0 512 512" style="enable-background:new 0 0 512 512;" xml:space="preserve">
<g>
	<path class="st0" d="M487.5,388.2c-0.6-1.2-1.1-2.2-1.6-3c-8.1-14.6-23.6-32.6-46.5-53.9l-0.5-0.5l-0.2-0.2l-0.2-0.2h-0.2
		c-10.4-9.9-17-16.6-19.7-20c-5-6.5-6.2-13.1-3.4-19.7c1.9-5,9.3-15.7,21.9-31.9c6.7-8.6,11.9-15.5,15.8-20.7
		c28.1-37.4,40.3-61.2,36.6-71.6l-1.5-2.4c-1-1.5-3.5-2.8-7.6-4c-4.1-1.2-9.3-1.4-15.6-0.6l-70.2,0.5c-1.1-0.4-2.8-0.4-4.9,0.1
		c-2.1,0.5-3.2,0.7-3.2,0.7l-1.2,0.6l-1,0.7c-0.8,0.5-1.7,1.3-2.7,2.6c-1,1.2-1.8,2.6-2.4,4.3c-7.6,19.7-16.3,37.9-26.1,54.8
		c-6,10.1-11.5,18.8-16.6,26.2c-5,7.4-9.3,12.8-12.7,16.3c-3.4,3.5-6.5,6.3-9.3,8.4c-2.8,2.1-4.9,3-6.3,2.7c-1.5-0.3-2.8-0.7-4.1-1
		c-2.3-1.5-4.1-3.5-5.5-6c-1.4-2.5-2.3-5.7-2.8-9.5c-0.5-3.8-0.8-7.1-0.9-9.9c-0.1-2.8,0-6.7,0.1-11.7c0.2-5,0.2-8.4,0.2-10.2
		c0-6.2,0.1-12.9,0.4-20.1c0.2-7.2,0.4-13,0.6-17.2c0.2-4.2,0.2-8.7,0.2-13.4s-0.3-8.4-0.9-11.1c-0.6-2.7-1.4-5.3-2.6-7.8
		c-1.1-2.5-2.8-4.5-5-5.8c-2.2-1.4-4.9-2.5-8.2-3.3c-8.6-1.9-19.6-3-32.9-3.2c-30.2-0.3-49.6,1.6-58.2,5.9c-3.4,1.8-6.5,4.2-9.3,7.3
		c-2.9,3.6-3.3,5.5-1.2,5.8c9.7,1.5,16.7,5,20.7,10.5l1.5,2.9c1.1,2.1,2.3,5.9,3.4,11.2c1.1,5.4,1.9,11.3,2.2,17.8
		c0.8,11.9,0.8,22,0,30.5c-0.8,8.5-1.6,15-2.3,19.7c-0.7,4.7-1.8,8.5-3.3,11.5c-1.5,2.9-2.4,4.7-2.9,5.4c-0.5,0.6-0.9,1.1-1.2,1.2
		c-2.1,0.8-4.3,1.2-6.6,1.2c-2.3,0-5-1.1-8.3-3.4c-3.2-2.3-6.6-5.4-10.1-9.4c-3.5-4-7.4-9.5-11.8-16.7c-4.4-7.1-8.9-15.6-13.6-25.3
		l-3.9-7.1c-2.4-4.5-5.8-11.2-10-19.9c-4.2-8.7-8-17.1-11.2-25.2c-1.3-3.4-3.2-6-5.8-7.8l-1.2-0.7c-0.8-0.6-2.1-1.3-3.9-2.1
		c-1.8-0.7-3.7-1.3-5.6-1.6l-66.8,0.5c-6.8,0-11.5,1.5-13.9,4.6l-1,1.5c-0.5,0.8-0.7,2.1-0.7,3.9c0,1.8,0.5,4,1.5,6.6
		c9.7,22.9,20.3,45,31.8,66.3s21.4,38.4,29.9,51.4c8.4,13,17.1,25.3,25.8,36.8c8.8,11.5,14.6,18.9,17.4,22.2
		c2.8,3.3,5.1,5.7,6.7,7.3l6.1,5.8c3.9,3.9,9.6,8.6,17.2,14c7.6,5.4,15.9,10.8,25.1,16.1c9.2,5.3,19.9,9.6,32,12.9
		c12.2,3.3,24,4.7,35.6,4h28c5.7-0.5,10-2.3,12.9-5.4l1-1.2c0.7-1,1.3-2.5,1.8-4.5c0.6-2,0.9-4.3,0.9-6.7c-0.2-7,0.4-13.3,1.6-18.9
		c1.2-5.6,2.6-9.8,4.1-12.7c1.5-2.8,3.3-5.2,5.2-7.2c1.9-1.9,3.3-3.1,4.1-3.5c0.8-0.4,1.5-0.7,1.9-0.9c3.9-1.3,8.5,0,13.8,3.8
		c5.3,3.8,10.2,8.5,14.9,14.1c4.6,5.6,10.2,11.9,16.7,18.9c6.5,7,12.2,12.2,17.1,15.6l4.9,2.9c3.3,2,7.5,3.7,12.7,5.4
		c5.2,1.6,9.7,2,13.6,1.2l62.4-1c6.2,0,11-1,14.4-3c3.4-2,5.4-4.3,6.1-6.7c0.7-2.4,0.7-5.2,0.1-8.3
		C488.7,391.5,488.1,389.4,487.5,388.2z"/>
</g>
</svg>
